<?xml version="1.0" encoding="UTF-8"?>
<svg version="1.1" viewBox="0 0 1648 928" width="412" height="232" xmlns="http://www.w3.org/2000/svg">
<path transform="translate(0)" d="m0 0h1648v928h-1648z" fill="#FCFCFC"/>
<path transform="translate(701,348)" d="m0 0h31l30 3 28 6 20 6 20 8 15 8 12 9 13 12 12 16 8 14 8 19 6 21 4 20v6l-5 6-16 3-62 4-36 4-35 5-60 11-4 1 2 1 50-3h64l41 3 17 3 5 3 3 3-1 7-6 7-1 3 13-1 36 1 13 1 4 2 2 3v8l-5 6-6 1-107 1-62 3-51 4-88 8h-16l-5-4-1-2v-8l5-5 23-5 43-8 40-8 7-1-1-1-31 4-36 4-82 10-7 1h-9l-8-4-4-5v-5l8-6 18-7 50-17 36-12 1-1-31 1-38 2h-28l-11-4-6-4-4-6-1-3v-28l3-17 5-15 8-17 9-13 11-12 10-9 10-7 23-12 25-9 21-6 26-5z" fill="#A40A31"/>
<path transform="translate(614,100)" d="m0 0h22l18 4 16 8 12 11 7 8 7 10v2l13-1h32l16 6 10 6 9 8 9 14 5 13 2 11-1 17-4 15-5 9-8 11-11 9-8 6-3 4-1 3-4 38-2 13-1 1h-47l-23 2-25 5-23 6-22 8-16 8-17 10-10 7-5 1-5-8-23-45-6-9-5-3-21-3-16-5-12-7-10-9-8-9-8-14-4-10-3-12v-25l5-16 9-15 12-13 11-9 15-8 17-4h17l19 4 9 3 1-5 8-15 7-9 9-10 13-9 16-6z" fill="#A40A31"/>
<path transform="translate(282,352)" d="m0 0h134l19 3 19 7 12 7 11 9 8 11 6 13 3 13 1 8v28l-3 15-8 16-9 10-7 6v2l11 7 8 8 8 13 4 10 3 13v24l-2 14-3 12-8 16-7 8-8 7-14 8-16 6-17 3h-145z" fill="#020101"/>
<path transform="translate(1054,346)" d="m0 0h23l16 2 15 4 17 7 11 7 10 9 7 7 9 14 5 11 4 16 1 15-3 10-4 3-11 2-11-1-17 1-9-3-4-7-3-17-6-12-6-7-10-6-8-3-5-1h-22l-13 4-11 8-6 9-3 8-1 11 2 9 5 9 5 6 10 6 8 3 9 2 21 3 3 1 16 2 17 4 16 6 16 9 10 8 7 7 8 14 4 12 2 14v24l-3 16-6 16-7 12-9 10-10 7-14 8-18 6-23 4h-36l-24-4-18-6-10-5-13-9-10-9-8-10-7-12-5-14-3-16v-8l3-9 4-3 6-1h40l4 4 3 7 3 15 7 11 7 7 11 7 17 5h20l18-5 9-6 8-11 4-11v-14l-4-10-7-8-16-8-15-3-13-2-14-1-20-5-18-6-19-10-10-8-11-13-6-13-3-11-2-12v-23l3-18 5-13 9-15 4-5h2v-2l15-11 15-7 17-5z" fill="#030101"/>
<path transform="translate(1319,346)" d="m0 0h19l17 2 15 4 16 7 11 7 11 9 5 5-2 6h-3l-12-12-15-10-13-6-13-4h-21v3l11 1 19 5 16 8 14 9 12 9-1 5-8 3-1 2 14-2 4 5 4 9 2 9v10l-4 16-5 6h-26l-8-2-3-8-4-18-5-10-5-6-10-7-9-3-5-1h-23l-10 3-9 6-8 8-4 7-2 8 1 12 4 11 6 8 6 5 9 4 15 4 21 2 27 5 21 7 17 9 12 9 10 10 8 14 5 14 2 10v24l-4 17-8 18-8 11h-2l-1 3-14 9-16 9-17 6-26 5h-35l-23-4-18-6-16-8-13-10-8-8-10-15-6-14-4-18v-10l2-7 5-5 4-1h41l3 1 5 11 3 13 6 11 9 9 12 7 15 4h21l16-5 8-5 8-9 5-12 1-5v-9l-4-11-5-7-11-7-10-4-11-2-27-3-22-5-18-6-15-8-14-11-8-9-6-10-4-11-3-14-1-18 2-19 4-15 8-16 9-11 14-11 15-8 18-5 14-2z" fill="#030101"/>
<path transform="translate(819,594)" d="m0 0h69l12 2 7 6 3 7 1 5v16l-3 12-4 4h-7l-36-7-37-6-36-4-15-1-29-1h-30l-44 2-36 4-41 7-27 6-20 5h-11l-4-4v-8l8-7 14-7 25-6 39-7 57-8 40-4 39-3z" fill="#A40A31"/>
<path transform="translate(343,526)" d="m0 0h78l10 6 6 8 3 9 1 7v22l-4 9-4 6-7 5-6 2-9 1h-67l-1-2z" fill="#FDFDFD"/>
<path transform="translate(344,401)" d="m0 0h60l12 2 9 6 5 6 4 11 1 8v14l-3 15-6 10-9 6-5 1h-68l-1-1v-20z" fill="#FDFDFD"/>
<path transform="translate(735,711)" d="m0 0h6l2 1-1 5-7 11v2h7l10-4 3 2-1 6-11 14-7 11-1 3v7l2 4h8l10-5 9-7 12-12 9-11 10-9 10-6 10-3h7l8 7 4 4-6 12-7 12-6 12-11 18-11 14-7 7-9 5-9 1-7-3-4-6v-4l4-1 5 7h7l9-6 9-10 6-10 10-16 1-3-10 9-7 6-7 4-7-1-5-4-2-9-5 2-13 9-10 4-9-2-6-7-1-5 2-12 6-12 2-5-5-3-4 2-12 16-8 8-6 7-13 10-6 3-7-1-4-2-1-2v-12l-8 7-9 8-7 3-6-1-5-6v-6l2-6-4-3 2-5 6-5 9-11 5-6h2l2-4 4-2 8 1-1 5-11 12-9 13-7 14v3h6l13-11 9-9 8-10 12-14 4-4 5-1 4 3-1 7-14 17-7 10-2 4-1 8 7-3 11-8 15-15 10-14 8-16z" fill="#100105"/>
<path transform="translate(586,667)" d="m0 0h32l14 4 10 6 4 5 3 8v7l-3 9-5 7-10 6-8 3-9 2 8 5 5 8 2 11-3 10-4 6-8 8-11 7-14 5-13 3h-11l-14-4-9-5-7-8-9 6-10 6-7 1-5-6-2-9 4-13 7-12 8-9 6-2 5 1 7 18 1 3 3-1 2-4 8-11 12-16 14-18 9-10 5-5 8-7 2-1h10l5 3-1 3-10 6-13 12-13 13-11 14-13 15-9 11-4 4 1 5 8 9 10 4h17l10-3 10-6 6-5 7-10 2-5v-11l-6-9-5-3-20-4-2-4 4-2 13 1h12l15-5 6-4 4-5 2-6v-9l-3-8-9-6-10-2-10-1h-13l-16 2-16 5-16 8-12 11-6 9v7l3 9-6-2-4-5-1-2v-9l6-12 7-7 16-10 13-5 18-4z" fill="#110105"/>
<path transform="translate(1191,739)" d="m0 0h127l78 2 14 1 4 2-7 2-72 2h-150l-96-1-102-2v-2l80-2z" fill="#A40A31"/>
<path transform="translate(904,711)" d="m0 0h6l1 1-1 7-6 8v3h7l5-3h7l1 5-8 11-9 12-4 10 2 7 3 2 6-1 11-6 10-8 9-7h3l-2 4-13 13-11 7-10 4-8-1-6-5-2-4v-8l4-13 5-9 1-4-7-2-8 10-7 9-10 11-12 9-10 6-10 3-8-3-6-7v-11l6-12 9-10 11-9 9-4 8-1 5 3 2 3-1 7-4 6-7 6-10 6-13 4-5 1-1 3v7l4 4 9-1 11-7 14-12 10-11 10-15 8-16z" fill="#140206"/>
<path transform="translate(375,740)" d="m0 0h89l18 1 6 1v3l-2 1-12 1-29 1h-56l-78-2-5-1-1-3 4-1z" fill="#A40A31"/>
<path transform="translate(816,727)" d="m0 0h7l1 4-2 3h-2l-2 4-8 11-8 10-10 10-9 5-4-1-1-1v-9l4-8 14-15 12-9z" fill="#FDFDFD"/>
<path transform="translate(1069,353)" d="m0 0h17l16 4 16 8 11 8 9 8 6 9 1 4-5-2-9-8-13-9-14-8-13-5-18-4-5-1z" fill="#FDFDFD"/>
<path transform="translate(405,358)" d="m0 0h16l14 3 12 5 16 9 12 11 4 5 3 6-5-2-17-12-22-12-15-5-19-4z" fill="#FDFDFD"/>
<path transform="translate(637,418)" d="m0 0 9 2 3 4v7l-5 5-5 3-7 3h-6l-6-4-2-3 1-4 7-8 8-4z" fill="#FDFDFD"/>
<path transform="translate(521,742)" d="m0 0 4 1 6 14 2 6-11 10-6 4h-5l-1-2v-13l8-16z" fill="#FDFDFD"/>
<path transform="translate(682,375)" d="m0 0h5l4 4-1 6-3 1v2l-9 7-5 1-8-5-1-5 5-5z" fill="#FDFDFD"/>
<path transform="translate(865,731)" d="m0 0h6l1 4-7 8-8 6-10 5h-5l2-5 9-10 10-7z" fill="#FDFDFD"/>
<path transform="translate(597,399)" d="m0 0h13l2 1v5l-7 6-4 3-5-1-5-5 1-5z" fill="#FDFDFD"/>
</svg>
